<mxfile host="app.diagrams.net" modified="2020-10-25T09:59:24.926Z" agent="5.0 (Windows NT 6.1; Win64; x64) AppleWebKit/537.36 (KHTML, like Gecko) Chrome/86.0.4240.111 Safari/537.36" etag="shOA5IE25RP3JED-Gf9J" version="13.8.2" type="github">
  <diagram id="C5RBs43oDa-KdzZeNtuy" name="Page-1">
    <mxGraphModel dx="1695" dy="449" grid="1" gridSize="10" guides="1" tooltips="1" connect="1" arrows="1" fold="1" page="1" pageScale="1" pageWidth="827" pageHeight="1169" math="0" shadow="0">
      <root>
        <mxCell id="WIyWlLk6GJQsqaUBKTNV-0" />
        <mxCell id="WIyWlLk6GJQsqaUBKTNV-1" parent="WIyWlLk6GJQsqaUBKTNV-0" />
        <mxCell id="eaJ79PKdHerNTeuaGa6t-6" value="server" style="rounded=0;html=1;align=center;verticalAlign=top;" vertex="1" parent="WIyWlLk6GJQsqaUBKTNV-1">
          <mxGeometry x="150" y="50" width="570" height="340" as="geometry" />
        </mxCell>
        <mxCell id="eaJ79PKdHerNTeuaGa6t-13" value="&lt;h3&gt;接口&lt;/h3&gt;" style="rounded=0;whiteSpace=wrap;html=1;align=center;verticalAlign=top;horizontal=1;spacing=-11;" vertex="1" parent="WIyWlLk6GJQsqaUBKTNV-1">
          <mxGeometry x="170" y="79" width="160" height="207" as="geometry" />
        </mxCell>
        <mxCell id="eaJ79PKdHerNTeuaGa6t-0" value="预处理" style="rounded=0;whiteSpace=wrap;html=1;verticalAlign=middle;align=center;" vertex="1" parent="WIyWlLk6GJQsqaUBKTNV-1">
          <mxGeometry x="190" y="111" width="120" height="38" as="geometry" />
        </mxCell>
        <mxCell id="eaJ79PKdHerNTeuaGa6t-2" value="文件分片上传" style="rounded=0;whiteSpace=wrap;html=1;" vertex="1" parent="WIyWlLk6GJQsqaUBKTNV-1">
          <mxGeometry x="190" y="171" width="120" height="40" as="geometry" />
        </mxCell>
        <mxCell id="eaJ79PKdHerNTeuaGa6t-12" style="edgeStyle=orthogonalEdgeStyle;rounded=0;orthogonalLoop=1;jettySize=auto;html=1;exitX=0.5;exitY=1;exitDx=0;exitDy=0;entryX=0.5;entryY=0;entryDx=0;entryDy=0;" edge="1" parent="WIyWlLk6GJQsqaUBKTNV-1" source="eaJ79PKdHerNTeuaGa6t-4" target="eaJ79PKdHerNTeuaGa6t-11">
          <mxGeometry relative="1" as="geometry" />
        </mxCell>
        <mxCell id="eaJ79PKdHerNTeuaGa6t-4" value="合并文件" style="rounded=0;whiteSpace=wrap;html=1;" vertex="1" parent="WIyWlLk6GJQsqaUBKTNV-1">
          <mxGeometry x="190" y="232" width="120" height="40" as="geometry" />
        </mxCell>
        <mxCell id="eaJ79PKdHerNTeuaGa6t-8" style="edgeStyle=orthogonalEdgeStyle;rounded=0;orthogonalLoop=1;jettySize=auto;html=1;entryX=0;entryY=0.5;entryDx=0;entryDy=0;" edge="1" parent="WIyWlLk6GJQsqaUBKTNV-1" target="eaJ79PKdHerNTeuaGa6t-0">
          <mxGeometry relative="1" as="geometry">
            <mxPoint x="100" y="80" as="sourcePoint" />
            <Array as="points">
              <mxPoint x="130" y="80" />
              <mxPoint x="130" y="130" />
            </Array>
          </mxGeometry>
        </mxCell>
        <mxCell id="eaJ79PKdHerNTeuaGa6t-9" style="edgeStyle=orthogonalEdgeStyle;rounded=0;orthogonalLoop=1;jettySize=auto;html=1;entryX=0;entryY=0.5;entryDx=0;entryDy=0;" edge="1" parent="WIyWlLk6GJQsqaUBKTNV-1" source="eaJ79PKdHerNTeuaGa6t-7" target="eaJ79PKdHerNTeuaGa6t-2">
          <mxGeometry relative="1" as="geometry">
            <Array as="points">
              <mxPoint x="130" y="80" />
              <mxPoint x="130" y="190" />
            </Array>
          </mxGeometry>
        </mxCell>
        <mxCell id="eaJ79PKdHerNTeuaGa6t-10" style="edgeStyle=orthogonalEdgeStyle;rounded=0;orthogonalLoop=1;jettySize=auto;html=1;entryX=0;entryY=0.5;entryDx=0;entryDy=0;" edge="1" parent="WIyWlLk6GJQsqaUBKTNV-1" source="eaJ79PKdHerNTeuaGa6t-7" target="eaJ79PKdHerNTeuaGa6t-4">
          <mxGeometry relative="1" as="geometry">
            <Array as="points">
              <mxPoint x="130" y="80" />
              <mxPoint x="130" y="252" />
            </Array>
          </mxGeometry>
        </mxCell>
        <mxCell id="eaJ79PKdHerNTeuaGa6t-7" value="http请求" style="rounded=1;whiteSpace=wrap;html=1;" vertex="1" parent="WIyWlLk6GJQsqaUBKTNV-1">
          <mxGeometry x="-10" y="60" width="110" height="40" as="geometry" />
        </mxCell>
        <mxCell id="eaJ79PKdHerNTeuaGa6t-11" value="NOS" style="rounded=0;whiteSpace=wrap;html=1;" vertex="1" parent="WIyWlLk6GJQsqaUBKTNV-1">
          <mxGeometry x="190" y="309" width="120" height="40" as="geometry" />
        </mxCell>
        <mxCell id="eaJ79PKdHerNTeuaGa6t-16" value="&lt;h3&gt;任务调度&lt;/h3&gt;" style="rounded=0;whiteSpace=wrap;html=1;align=center;verticalAlign=top;horizontal=1;spacing=-11;" vertex="1" parent="WIyWlLk6GJQsqaUBKTNV-1">
          <mxGeometry x="350" y="79" width="160" height="207" as="geometry" />
        </mxCell>
        <mxCell id="eaJ79PKdHerNTeuaGa6t-20" style="edgeStyle=orthogonalEdgeStyle;rounded=0;orthogonalLoop=1;jettySize=auto;html=1;" edge="1" parent="WIyWlLk6GJQsqaUBKTNV-1" source="eaJ79PKdHerNTeuaGa6t-17">
          <mxGeometry relative="1" as="geometry">
            <mxPoint x="320" y="329" as="targetPoint" />
            <Array as="points">
              <mxPoint x="340" y="130" />
              <mxPoint x="340" y="329" />
            </Array>
          </mxGeometry>
        </mxCell>
        <mxCell id="eaJ79PKdHerNTeuaGa6t-17" value="短音频转写" style="rounded=0;whiteSpace=wrap;html=1;verticalAlign=middle;align=center;" vertex="1" parent="WIyWlLk6GJQsqaUBKTNV-1">
          <mxGeometry x="370" y="111" width="120" height="38" as="geometry" />
        </mxCell>
        <mxCell id="eaJ79PKdHerNTeuaGa6t-21" style="edgeStyle=orthogonalEdgeStyle;rounded=0;orthogonalLoop=1;jettySize=auto;html=1;exitX=0;exitY=0.5;exitDx=0;exitDy=0;entryX=1;entryY=0.5;entryDx=0;entryDy=0;" edge="1" parent="WIyWlLk6GJQsqaUBKTNV-1" source="eaJ79PKdHerNTeuaGa6t-18" target="eaJ79PKdHerNTeuaGa6t-11">
          <mxGeometry relative="1" as="geometry" />
        </mxCell>
        <mxCell id="eaJ79PKdHerNTeuaGa6t-18" value="中音频转写" style="rounded=0;whiteSpace=wrap;html=1;" vertex="1" parent="WIyWlLk6GJQsqaUBKTNV-1">
          <mxGeometry x="370" y="171" width="120" height="40" as="geometry" />
        </mxCell>
        <mxCell id="eaJ79PKdHerNTeuaGa6t-22" style="edgeStyle=orthogonalEdgeStyle;rounded=0;orthogonalLoop=1;jettySize=auto;html=1;" edge="1" parent="WIyWlLk6GJQsqaUBKTNV-1" source="eaJ79PKdHerNTeuaGa6t-19">
          <mxGeometry relative="1" as="geometry">
            <mxPoint x="310" y="330" as="targetPoint" />
            <Array as="points">
              <mxPoint x="340" y="252" />
              <mxPoint x="340" y="330" />
            </Array>
          </mxGeometry>
        </mxCell>
        <mxCell id="eaJ79PKdHerNTeuaGa6t-19" value="长音频转写" style="rounded=0;whiteSpace=wrap;html=1;" vertex="1" parent="WIyWlLk6GJQsqaUBKTNV-1">
          <mxGeometry x="370" y="232" width="120" height="40" as="geometry" />
        </mxCell>
      </root>
    </mxGraphModel>
  </diagram>
</mxfile>
